<?xml version="1.0" encoding="UTF-8" standalone="no"?>
<svg xmlns:rdf="http://www.w3.org/1999/02/22-rdf-syntax-ns#" xmlns="http://www.w3.org/2000/svg" height="48" width="48" version="1.1" xmlns:cc="http://creativecommons.org/ns#" xmlns:xlink="http://www.w3.org/1999/xlink" viewBox="0 0 48 48.000001" xmlns:dc="http://purl.org/dc/elements/1.1/">
<defs>
<linearGradient id="linearGradient4318" y2="10.267" gradientUnits="userSpaceOnUse" x2="7.7166" y1="37.233" x1="7.1621">
<stop stop-color="#f0ffff" offset="0"/>
<stop stop-color="#f0ffff" stop-opacity="0" offset="1"/>
</linearGradient>
</defs>
<g transform="translate(0 -1004.4)">
<g transform="matrix(-.70711 .70711 -.70711 -.70711 768.16 1738.6)">
<path d="m24 15.688c-4.5909-0.00008-8.3126 3.7216-8.3125 8.3125 0.0012 0.02865 0.0025 0.0573 0.0039 0.08594-0.06434 2.6791-0.03125 5.5222-0.03125 8.2578 2.7685-0.03713 5.6455 0.06625 8.3574-0.03125 4.584-0.01 8.295-3.729 8.294-8.313 0.001-4.591-3.721-8.313-8.312-8.312z" transform="translate(0 1004.4)" fill="#f0ffff"/>
<circle cx="24" cy="1028.4" r="12.368" fill="none"/>
</g>
<path stroke-linejoin="round" d="m10.561 11.824a17.68 17.68 0 0 0 -7.1919 14.188 17.68 17.68 0 0 0 3.5098 10.539h4.6891a17.68 17.68 0 0 1 -5.2477 -12.551 17.68 17.68 0 0 1 4.9117 -12.176h-0.671z" transform="translate(0 1004.4)" stroke="#f0ffff" fill="url(#linearGradient4318)"/>
<path d="m17.492 40.422c2.071 0.826 4.279 1.252 6.508 1.258 9.764-0.001 17.679-7.916 17.68-17.68-0.005-4.499-1.724-8.828-4.809-12.104" transform="translate(0 1004.4)" stroke="#f0ffff" stroke-linecap="round" stroke-dasharray="1, 2" fill="none"/>
<g font-size="4.5199px" font-family="Cantarell" fill="#f0ffff">
<text style="word-spacing:0px;letter-spacing:0px" xml:space="preserve" y="1011.3204" x="20.558865" line-height="125%"><tspan x="20.558865" y="1011.3204">off</tspan></text>
<text style="word-spacing:0px;letter-spacing:0px" xml:space="preserve" line-height="125%" y="1015.3113" x="7.7276959"><tspan x="7.7276959" y="1015.3113">1</tspan></text>
<text style="word-spacing:0px;letter-spacing:0px" line-height="125%" y="1029.6743" x="0.14104685" xml:space="preserve"><tspan y="1029.6743" x="0.14104685">2</tspan></text>
<text style="word-spacing:0px;letter-spacing:0px" xml:space="preserve" line-height="125%" y="1045.0894" x="3.7823873"><tspan x="3.7823873" y="1045.0894">3</tspan></text>
</g>
</g>
</svg>
