<?xml version="1.0" encoding="UTF-8" standalone="no"?>
<svg
   xmlns:dc="http://purl.org/dc/elements/1.1/"
   xmlns:cc="http://creativecommons.org/ns#"
   xmlns:rdf="http://www.w3.org/1999/02/22-rdf-syntax-ns#"
   xmlns:svg="http://www.w3.org/2000/svg"
   xmlns="http://www.w3.org/2000/svg"
   xmlns:sodipodi="http://sodipodi.sourceforge.net/DTD/sodipodi-0.dtd"
   xmlns:inkscape="http://www.inkscape.org/namespaces/inkscape"
   height="48"
   width="48"
   version="1.1"
   viewBox="0 0 48 48.000001"
   id="svg2"
   inkscape:version="0.91 r13725"
   sodipodi:docname="knob.three.levels.svg">
  <metadata
     id="metadata42">
    <rdf:RDF>
      <cc:Work
         rdf:about="">
        <dc:format>image/svg+xml</dc:format>
        <dc:type
           rdf:resource="http://purl.org/dc/dcmitype/StillImage" />
      </cc:Work>
    </rdf:RDF>
  </metadata>
  <sodipodi:namedview
     pagecolor="#ffffff"
     bordercolor="#666666"
     borderopacity="1"
     objecttolerance="10"
     gridtolerance="10"
     guidetolerance="10"
     inkscape:pageopacity="0"
     inkscape:pageshadow="2"
     inkscape:window-width="1237"
     inkscape:window-height="745"
     id="namedview40"
     showgrid="false"
     inkscape:zoom="13.122695"
     inkscape:cx="21.339059"
     inkscape:cy="25.099577"
     inkscape:window-x="43"
     inkscape:window-y="27"
     inkscape:window-maximized="1"
     inkscape:current-layer="svg2" />
  <defs
     id="defs4">
    <linearGradient
       id="linearGradient4318"
       y2="11.705"
       gradientUnits="userSpaceOnUse"
       x2="7.5728"
       y1="35.363"
       x1="7.7374">
      <stop
         stop-color="#f0ffff"
         offset="0"
         id="stop7" />
      <stop
         stop-color="#f0ffff"
         stop-opacity=".19608"
         offset="1"
         id="stop9" />
    </linearGradient>
  </defs>
  <g
     transform="translate(0 -1004.4)"
     id="g11">
    <g
       id="Knob"
       transform="matrix(-0.70711003,0.70711003,-0.70711003,-0.70711003,768.15996,1738.6)">
      <path
         d="m 24,15.688 c -4.5909,-8e-5 -8.3126,3.7216 -8.3125,8.3125 0.0012,0.02865 0.0025,0.0573 0.0039,0.08594 -0.06434,2.6791 -0.03125,5.5222 -0.03125,8.2578 2.7685,-0.03713 5.6455,0.06625 8.3574,-0.03125 4.584,-0.01 8.295,-3.729 8.294,-8.313 0.001,-4.591 -3.721,-8.313 -8.312,-8.312 z"
         transform="translate(0,1004.4)"
         id="path14"
         inkscape:connector-curvature="0"
         style="fill:#f0ffff" />
      <circle
         cy="1028.4"
         cx="24"
         r="12.368"
         id="circle16"
         style="fill:none;stroke:#f0ffff;stroke-opacity:1;stroke-width:0.99999541;stroke-miterlimit:4;stroke-dasharray:none" />
    </g>
    <path
       stroke-linejoin="round"
       d="m10.561 11.824a17.68 17.68 0 0 0 -7.1919 14.188 17.68 17.68 0 0 0 3.5098 10.539h4.6891a17.68 17.68 0 0 1 -5.2477 -12.551 17.68 17.68 0 0 1 4.9117 -12.176h-0.671z"
       transform="translate(0 1004.4)"
       stroke="#f0ffff"
       fill="url(#linearGradient4318)"
       id="path18" />
    <path
       d="m17.492 40.422c2.071 0.826 4.279 1.252 6.508 1.258 9.764-0.001 17.679-7.916 17.68-17.68-0.005-4.499-1.724-8.828-4.809-12.104"
       transform="translate(0 1004.4)"
       stroke="#f0ffff"
       stroke-linecap="round"
       stroke-dasharray="1, 2"
       fill="none"
       id="path20" />
    <g
       font-size="4.5199px"
       font-family="Cantarell"
       fill="#f0ffff"
       id="g22">
      <text
         style="word-spacing:0px;letter-spacing:0px"
         xml:space="preserve"
         line-height="125%"
         y="1011.3204"
         x="20.558865"
         id="text24"><tspan
           y="1011.3204"
           x="20.558865"
           id="tspan26">off</tspan></text>
      <text
         style="word-spacing:0px;letter-spacing:0px"
         xml:space="preserve"
         line-height="125%"
         y="1015.3113"
         x="7.7276959"
         id="text28"><tspan
           y="1015.3113"
           x="7.7276959"
           id="tspan30">1</tspan></text>
      <text
         style="word-spacing:0px;letter-spacing:0px"
         xml:space="preserve"
         line-height="125%"
         y="1029.6743"
         x="0.14104685"
         id="text32"><tspan
           y="1029.6743"
           x="0.14104685"
           id="tspan34">2</tspan></text>
      <text
         style="word-spacing:0px;letter-spacing:0px"
         xml:space="preserve"
         line-height="125%"
         y="1045.0894"
         x="3.7823873"
         id="text36"><tspan
           y="1045.0894"
           x="3.7823873"
           id="tspan38">3</tspan></text>
    </g>
  </g>
</svg>
