<?xml version="1.0" encoding="UTF-8" standalone="no"?>
<svg
   xmlns:dc="http://purl.org/dc/elements/1.1/"
   xmlns:cc="http://creativecommons.org/ns#"
   xmlns:rdf="http://www.w3.org/1999/02/22-rdf-syntax-ns#"
   xmlns:svg="http://www.w3.org/2000/svg"
   xmlns="http://www.w3.org/2000/svg"
   xmlns:sodipodi="http://sodipodi.sourceforge.net/DTD/sodipodi-0.dtd"
   xmlns:inkscape="http://www.inkscape.org/namespaces/inkscape"
   height="48"
   width="48"
   version="1.1"
   viewBox="0 0 48 48.000001"
   id="svg2"
   inkscape:version="0.91 r13725"
   sodipodi:docname="knob.three.levels.svg">
  <metadata
     id="metadata42">
    <rdf:RDF>
      <cc:Work
         rdf:about="">
        <dc:format>image/svg+xml</dc:format>
        <dc:type
           rdf:resource="http://purl.org/dc/dcmitype/StillImage" />
      </cc:Work>
    </rdf:RDF>
  </metadata>
  <sodipodi:namedview
     pagecolor="#ffffff"
     bordercolor="#666666"
     borderopacity="1"
     objecttolerance="10"
     gridtolerance="10"
     guidetolerance="10"
     inkscape:pageopacity="0"
     inkscape:pageshadow="2"
     inkscape:window-width="1237"
     inkscape:window-height="745"
     id="namedview40"
     showgrid="false"
     inkscape:zoom="13.122695"
     inkscape:cx="21.339059"
     inkscape:cy="28.147731"
     inkscape:window-x="43"
     inkscape:window-y="27"
     inkscape:window-maximized="1"
     inkscape:current-layer="svg2" />
  <defs
     id="defs4">
    <linearGradient
       id="linearGradient4318"
       y2="11.705"
       gradientUnits="userSpaceOnUse"
       x2="7.5728"
       y1="35.363"
       x1="7.7374">
      <stop
         stop-color="#f0ffff"
         offset="0"
         id="stop7" />
      <stop
         stop-color="#f0ffff"
         stop-opacity=".19608"
         offset="1"
         id="stop9" />
    </linearGradient>
  </defs>
  <g
     transform="matrix(-0.70711003,0.70711003,-0.70711003,-0.70711003,768.15996,734.2)"
     id="Knob">
    <path
       style="fill:#f0ffff"
       inkscape:connector-curvature="0"
       id="path14"
       transform="translate(0,1004.4)"
       d="m 24,15.688 c -4.5909,-8e-5 -8.3126,3.7216 -8.3125,8.3125 0.0012,0.02865 0.0025,0.0573 0.0039,0.08594 -0.06434,2.6791 -0.03125,5.5222 -0.03125,8.2578 2.7685,-0.03713 5.6455,0.06625 8.3574,-0.03125 4.584,-0.01 8.295,-3.729 8.294,-8.313 0.001,-4.591 -3.721,-8.313 -8.312,-8.312 z" />
    <circle
       style="fill:none;stroke:#f0ffff;stroke-width:0.99999541;stroke-miterlimit:4;stroke-dasharray:none;stroke-opacity:0"
       id="circle16"
       r="12.368"
       cx="24"
       cy="1028.4" />
  </g>
  <path
     inkscape:connector-curvature="0"
     style="fill:url(#linearGradient4318);stroke:#f0ffff;stroke-linejoin:round"
     id="path18"
     d="M 10.561,11.824 A 17.68,17.68 0 0 0 3.3691,26.012 17.68,17.68 0 0 0 6.8789,36.551 l 4.6891,0 A 17.68,17.68 0 0 1 6.3203,24 17.68,17.68 0 0 1 11.232,11.824 l -0.671,0 z" />
  <path
     style="fill:none;stroke:#f0ffff;stroke-linecap:round;stroke-dasharray:1, 2"
     inkscape:connector-curvature="0"
     id="path20"
     d="M 17.492,40.422 C 19.563,41.248 21.771,41.674 24,41.68 33.764,41.679 41.679,33.764 41.68,24 41.675,19.501 39.956,15.172 36.871,11.896" />
  <g
     style="font-size:4.51989985px;font-family:Cantarell;fill:#f0ffff"
     id="g22"
     font-size="4.5199px"
     transform="translate(0,-1004.4)">
    <text
       sodipodi:linespacing="125%"
       id="text24"
       x="20.558865"
       y="1011.3204"
       line-height="125%"
       xml:space="preserve"
       style="line-height:125%;letter-spacing:0px;word-spacing:0px"><tspan
         id="tspan26"
         x="20.558865"
         y="1011.3204">off</tspan></text>
    <text
       sodipodi:linespacing="125%"
       id="text28"
       x="7.7276959"
       y="1015.3113"
       line-height="125%"
       xml:space="preserve"
       style="line-height:125%;letter-spacing:0px;word-spacing:0px"><tspan
         id="tspan30"
         x="7.7276959"
         y="1015.3113">1</tspan></text>
    <text
       sodipodi:linespacing="125%"
       id="text32"
       x="0.14104685"
       y="1029.6743"
       line-height="125%"
       xml:space="preserve"
       style="line-height:125%;letter-spacing:0px;word-spacing:0px"><tspan
         id="tspan34"
         x="0.14104685"
         y="1029.6743">2</tspan></text>
    <text
       sodipodi:linespacing="125%"
       id="text36"
       x="3.7823873"
       y="1045.0894"
       line-height="125%"
       xml:space="preserve"
       style="line-height:125%;letter-spacing:0px;word-spacing:0px"><tspan
         id="tspan38"
         x="3.7823873"
         y="1045.0894">3</tspan></text>
  </g>
</svg>
