<?xml version="1.0" encoding="UTF-8" standalone="no"?>
<svg id="svg2" xmlns:rdf="http://www.w3.org/1999/02/22-rdf-syntax-ns#" xmlns="http://www.w3.org/2000/svg" xml:space="preserve" height="48" width="48" version="1.1" enable-background="new 0 0 76.00 76.00" xmlns:cc="http://creativecommons.org/ns#" xmlns:dc="http://purl.org/dc/elements/1.1/" viewBox="0 0 48 48"><metadata id="metadata10"><rdf:RDF><cc:Work rdf:about=""><dc:format>image/svg+xml</dc:format><dc:type rdf:resource="http://purl.org/dc/dcmitype/StillImage"/><dc:title/></cc:Work></rdf:RDF></metadata><path id="path4" stroke-linejoin="round" d="m24 4.3637c12.05 0 21.818 9.7683 21.818 21.818s-9.768 21.818-21.818 21.818-21.818-9.768-21.818-21.818c-0.0001-12.05 9.768-21.818 21.818-21.818zm0 5.4545c-9.0374 0-16.364 7.3263-16.364 16.364 0 9.0374 7.3262 16.364 16.364 16.364 9.0374 0 16.364-7.3262 16.364-16.364 0-9.037-7.327-16.364-16.364-16.364zm-0.54541 4.3637c1.2049 0 2.1818 0.97686 2.1818 2.1818v8.1819h8.1818c1.2049 0 2.1818 0.97672 2.1818 2.1818v1.0908c0 1.205-0.97686 2.1819-2.1818 2.1819h-9.8182c-1.091-0.18189-2.1818-0.36365-2.8183-1-0.63635-0.63636-0.81811-1.7273-0.99987-2.8183v-9.8182c0-1.2049 0.97672-2.1818 2.1818-2.1818h1.091zm15.818-14.182c4.82 0 8.727 3.9074 8.727 8.7273 0 2.0797-0.727 3.9887-1.941 5.4877-2.846-5.2342-7.5-9.343-13.125-11.487 1.591-1.6799 3.842-2.728 6.339-2.728zm-30.546 0.000138c2.4962 0 4.7477 1.048 6.3385 2.7281-5.6246 2.1438-10.279 6.2526-13.125 11.487-1.2138-1.499-1.941-3.408-1.941-5.4877 0-4.8199 3.9074-8.7272 8.7273-8.7272z" stroke-width=".2" fill="#f0ffff"/></svg>
