<?xml version="1.0" encoding="UTF-8" standalone="no"?>
<svg xmlns:rdf="http://www.w3.org/1999/02/22-rdf-syntax-ns#" xmlns="http://www.w3.org/2000/svg" xml:space="preserve" height="48" width="48" version="1.1" enable-background="new 0 0 76.00 76.00" xmlns:cc="http://creativecommons.org/ns#" xmlns:dc="http://purl.org/dc/elements/1.1/" viewBox="0 0 48 48"><metadata><rdf:RDF><cc:Work rdf:about=""><dc:format>image/svg+xml</dc:format><dc:type rdf:resource="http://purl.org/dc/dcmitype/StillImage"/><dc:title/></cc:Work></rdf:RDF></metadata><path stroke-linejoin="round" d="m24 0c13.255 0 24 10.745 24 24s-10.745 24-24 24-24-10.745-24-24 10.745-24 24-24zm0 3.4286c-1.0406 0-2.0632 0.07731-3.0623 0.22639-0.21383 0.46567-0.36628 0.97682-0.36628 1.4879 0 1.7144-1.7142-1.7142-3.4285 1.7144-1.7144 3.4285 0 0 0 3.4285 0 1.7144-2.481 0.4739-1.7144 0.85718 1.7144 0.85718 1.7144 0.85718 0 2.5714 0 0-3.4285-1.7142-3.4285 0s-1.7144 1.7142-3.4286 1.7142 0 3.4286-1.7142 3.4286c-1.3181 0-0.60935-2.0269-1.7697-2.9638-0.44109 1.0277-0.80088 2.0985-1.0712 3.2044 1.1554 1.0352 1.3488 5.1246 2.8409 6.6166 1.7142-1.7144 1.7142 0 3.4285 0 1.7144 0 1.7144 0 2.5714 1.7142 1.7144 0 2.5714 1.7142 4.2858 3.4285 1.7142 1.7144 5.1427 1.7144 5.1427 3.4286s-1.7142 0-1.7142 3.4286c0 1.7142 0 1.7142-1.7142 1.7142-1.0793 0-2.1588 2.0388-2.8103 3.5491 2.4467 1.0265 5.1336 1.5937 7.9531 1.5937 5.7577 0 10.963-2.3654 14.697-6.1775l-0.98266-1.9653s2.1429-3.4286 0.42864-5.1428c-1.7144-1.7142-1.7144-3.4286-1.7144-3.4286s-3.4285 3.4286-5.1428 1.7142c-1.7142-1.7142-1.7142 0-3.4285-3.4285-1.7144-3.4286 1.7142-5.1428 1.7142-5.1428s0-3.4286 1.7142-3.4286c1.7144 0 3.4286-3.4285 6.8572 0 0 0 1.9812-1.3208 4.7844-1.6437-0.87926-2.0589-2.0845-3.9452-3.5511-5.594-0.30792 0.22141-0.7109 0.38057-1.2333 0.38057-1.7144 0 1.7142 3.4286 0 3.4286-1.7144 0-1.7144-1.7144-3.4286-1.7144s-1.7142 1.7144-3.4286 3.4286c-1.7142 1.7142 0 0-1.7142-1.7142-1.7142-1.7144 3.4286 0 1.7142-1.7144-1.7142-1.7142 1.7144-1.7142 1.7144-3.4285 0-1.3446 2.1091-1.6346 3.0189-1.6971-0.989-0.7154-2.045-1.3431-3.019-1.7335 1.7142 1.7142-1.7144 3.4286-3.4286 3.4286-1.6103 0-0.19543-3.0252-0.01776-4.8131-1.767-0.4941-3.63-0.7584-5.554-0.7584zm-20.571 20.571c0 6.0507 2.6122 11.491 6.7705 15.255l-1.6276-3.2554c-1.7142 0-2.5714-3.857-2.5714-5.5714 0-1.3757-0.55207-2.4754 0.11596-3.7422-2.4187-2.429-0.9732-1.112-0.9732-2.686 0-0.816-0.7769-1.632-1.5911-2.263-0.0814 0.743-0.1231 1.498-0.1231 2.263z" stroke-width=".2" fill="#f0ffff"/></svg>
