<?xml version="1.0" encoding="UTF-8" standalone="no"?>
<svg xmlns:rdf="http://www.w3.org/1999/02/22-rdf-syntax-ns#" xmlns="http://www.w3.org/2000/svg" xml:space="preserve" height="48" width="48" version="1.1" enable-background="new 0 0 76.00 76.00" xmlns:cc="http://creativecommons.org/ns#" xmlns:dc="http://purl.org/dc/elements/1.1/" viewBox="0 0 48 48"><metadata><rdf:RDF><cc:Work rdf:about=""><dc:format>image/svg+xml</dc:format><dc:type rdf:resource="http://purl.org/dc/dcmitype/StillImage"/><dc:title/></cc:Work></rdf:RDF></metadata><path stroke-linejoin="round" d="m14.4 19.2c0 0.75744-0.46053 1.3714-1.0286 1.3714-0.56804 0-1.0286-0.61399-1.0286-1.3714 0-0.75737 0.46053-1.3714 1.0286-1.3714 0.56805 0 1.0286 0.61406 1.0286 1.3714zm33.6 4.8c0 13.255-10.745 24-24 24s-24-10.745-24-24c-0.000007-13.255 10.745-24 24-24s24 10.745 24 24zm-34.971-8.229c-1.8935 0-3.4286 1.535-3.4286 3.4286v9.6c0 1.8935 1.535 3.4286 3.4286 3.4286h7.7017c0.11019-0.97556 0.29554-2.2148 0.60603-3.53-2.0055-0.43509-3.5077-2.22-3.5077-4.3558 0-2.4616 1.9955-4.4571 4.4571-4.4571 1.2114 0 2.3099 0.48329 3.1133 1.2675 0.77102-0.59177 1.6648-1.0141 2.701-1.1938-1.0354-0.81614-1.7-2.0816-1.7-3.5023 0-0.82162 0.22231-1.5914 0.61008-2.2523-0.599-1.079-1.764-1.862-3.011-1.862h-4.1143c-1.7988 0-3.4286 1.6297-3.4286 3.4286l-3.4286 0.000069zm15.6 5.4856c0.000069 0-6.8571-0.68571-6.6856 13.371l2.2286 0.51428s0.34286-5.1429 1.7143-7.8857v8.5714s2.5714 1.2 5.3143 1.1785c2.7429-0.0216 5.1429-1.1785 5.1429-1.1785l-0.000069-8.5714c1.3714 2.7429 1.7144 7.8857 1.7144 7.8857l2.2286-0.51428c0.171-14.057-6.686-13.371-6.686-13.371h-4.9715zm-1.1999-4.8c0 1.8935 1.535 3.4286 3.4286 3.4286 1.8935 0 3.4286-1.535 3.4286-3.4286 0-1.8935-1.535-3.4286-3.4286-3.4286-1.8935 0-3.4286 1.535-3.4286 3.4286z" stroke-width=".2" fill="#f0ffff"/></svg>
