<?xml version="1.0" encoding="UTF-8" standalone="no"?>
<svg xmlns:rdf="http://www.w3.org/1999/02/22-rdf-syntax-ns#" xmlns="http://www.w3.org/2000/svg" xml:space="preserve" height="48" width="48" version="1.1" enable-background="new 0 0 76.00 76.00" xmlns:cc="http://creativecommons.org/ns#" xmlns:dc="http://purl.org/dc/elements/1.1/" viewBox="0 0 48 48"><metadata><rdf:RDF><cc:Work rdf:about=""><dc:format>image/svg+xml</dc:format><dc:type rdf:resource="http://purl.org/dc/dcmitype/StillImage"/><dc:title/></cc:Work></rdf:RDF></metadata><path stroke-linejoin="round" d="m27.071 23.723 0.90419-6.1364c-0.46119-0.08673-0.99164-0.13818-1.5912-0.15445l-1.0127 0.09535c-1.633 0.39288-3.0307 1.3127-4.193 2.7598-1.2362 1.5388-1.9909 3.3686-2.2643 5.4895l-0.02201 0.56934c0.0014 1.334 0.2888 2.3817 0.903 3.1959 0.52938 0.41381 1.2084 0.62592 2.0372 0.63657 1.3086-0.04977 2.5148-0.76625 3.6186-2.1495l0.42171-0.57316c0.56503-1.0823 0.96449-2.3266 1.1986-3.733zm-21.014 17.163c-3.4955-3.534-5.3279-8.366-5.4974-14.498 0.07978-5.292 1.3812-9.951 3.904-13.976 0.9849-1.74 2.1875-3.3676 3.6078-4.8821 4.5239-4.825 10.613-7.3349 18.267-7.5299 6.131 0.09451 11.016 1.8794 14.655 5.3552 0.18376 0.17538 0.36297 0.35376 0.53775 0.535 1.6261 1.5678 2.8936 3.3627 3.8026 5.3845 1.3511 2.6672 2.0536 5.745 2.1075 9.2336-0.06233 5.1573-1.2489 9.1875-3.5596 12.091-2.3107 2.9034-5.3718 4.38-9.183 4.43-0.91855-0.000838-1.7462-0.13172-2.4828-0.39252-0.86495-0.19716-1.6198-0.55175-2.2645-1.0638-0.22372-0.17754-0.42781-0.37362-0.61252-0.58836-0.6319-0.54385-1.0962-1.2473-1.393-2.1102-2.1651 2.7694-4.9591 4.1743-8.3817 4.2143-1.2181-0.0078-2.311-0.25326-3.2786-0.73658-0.90467-0.3717-1.7062-0.93936-2.4044-1.7031-0.18926-0.17251-0.37182-0.35782-0.5478-0.55582-1.3582-1.5288-2.0589-3.7327-2.102-6.6117 0.03433-3.3542 0.8817-6.3187 2.5422-8.8934 0.60499-1.1024 1.3489-2.1383 2.2314-3.1077 2.7616-3.0335 6.6157-4.6169 11.562-4.7501 1.5461 0.01256 3.0624 0.17132 4.5488 0.47626 1.4863 0.30507 2.6784 0.68107 3.5758 1.1281l-0.03876 0.23939c0.18029 0.07573 0.351 0.15373 0.51239 0.23412l-0.10121 0.62377 0.3004 0.14212-2.0827 12.841c-0.2541 1.3831-0.35292 2.5288-0.29633 3.4372 0.08398 0.30698 0.19823 0.56778 0.34275 0.78228 0.28102 0.18256 0.62174 0.27372 1.0222 0.27372 1.5604 0.07178 3.0313-0.84306 4.5122-2.8847 0.95504-1.8622 1.4707-4.4163 1.5471-7.6623-0.017-4.463-1.373-8.11-4.068-10.941-2.761-2.6195-6.687-3.9724-11.776-4.0583-3.812 0.0378-7.205 0.9922-10.18 2.8633-1.065 0.7096-2.075 1.5376-3.031 2.484-1.997 1.977-3.487 4.379-4.4696 7.207-0.6821 2.251-1.0559 4.76-1.1218 7.528 0.08697 5.2903 1.5126 9.3879 4.3788 12.389 3.1422 2.9291 7.2521 4.4018 12.33 4.4182 1.7681-0.0028 3.5232-0.17359 5.2657-0.51251 1.7425-0.33904 3.3099-0.83014 4.7024-1.4734l0.16486 0.6124c0.10384-0.04546 0.20673-0.09176 0.30877-0.1389l1.0042 3.7317 0.40663 1.2038c-2.0421 0.86028-4.0671 1.466-6.0745 1.8174-2.0076 0.35136-4.2408 0.521-6.6995 0.50892-5.813-0.044-10.775-1.892-14.888-5.543l-1.1317-1.095c-0.081-0.082-0.1609-0.165-0.2401-0.248l-0.2335-0.226z" stroke-width=".2" fill="#f0ffff"/></svg>
