<?xml version="1.0" encoding="UTF-8" standalone="no"?>
<svg
   xmlns:dc="http://purl.org/dc/elements/1.1/"
   xmlns:cc="http://creativecommons.org/ns#"
   xmlns:rdf="http://www.w3.org/1999/02/22-rdf-syntax-ns#"
   xmlns:svg="http://www.w3.org/2000/svg"
   xmlns="http://www.w3.org/2000/svg"
   id="svg4"
   xml:space="preserve"
   enable-background="new 0 0 76.00 76.00"
   viewBox="0 0 48 48"
   height="48"
   width="48"
   version="1.1"><metadata
     id="metadata10"><rdf:RDF><cc:Work
         rdf:about=""><dc:format>image/svg+xml</dc:format><dc:type
           rdf:resource="http://purl.org/dc/dcmitype/StillImage" /><dc:title></dc:title></cc:Work></rdf:RDF></metadata><defs
     id="defs8" /><path
     style="fill:#f0ffff;fill-opacity:1;stroke-width:0.20210527;stroke-linejoin:round"
     id="path2"
     d="M 0,9.6 H 48 V 38.4 H 0 Z m 22.642459,19.717086 -1.608657,0.430383 -1.941423,0.16603 c -1.886552,-0.01981 -3.34848,-0.556295 -4.385583,-1.609566 -1.037204,-1.053272 -1.562981,-2.504792 -1.577432,-4.354358 0.03931,-2.030956 0.61248,-3.546948 1.719512,-4.547975 1.107132,-1.001027 2.51237,-1.500531 4.215713,-1.498206 0.763352,0.0062 1.441718,0.07528 2.035099,0.207158 l 1.514981,0.471511 0.887546,-3.391427 c -0.382484,-0.201499 -0.9696,-0.383798 -1.761146,-0.546897 -0.791646,-0.163099 -1.739216,-0.249499 -2.842812,-0.259099 -2.8992,0.0191 -5.301726,0.874509 -7.207579,2.566333 -1.905853,1.691924 -2.8938443,4.106071 -2.9639748,7.242543 0.00313,2.662231 0.8222652,4.853255 2.4575998,6.572968 1.635234,1.719815 4.067874,2.609583 7.29792,2.669407 1.134821,-0.01102 2.117053,-0.100043 2.946796,-0.266982 0.829743,-0.16704 1.437575,-0.346105 1.823596,-0.537397 z m 15.94661,0 -1.608555,0.430383 -1.941525,0.16603 c -1.886551,-0.01981 -3.348378,-0.556295 -4.385583,-1.609566 -1.037204,-1.053272 -1.562981,-2.504792 -1.577431,-4.354358 0.03931,-2.030956 0.61248,-3.546948 1.719612,-4.547975 1.107032,-1.001027 2.51227,-1.500531 4.215714,-1.498307 0.763251,0.0063 1.441617,0.07539 2.034998,0.207259 l 1.515082,0.471511 0.887545,-3.391427 c -0.382585,-0.201499 -0.9696,-0.383798 -1.761246,-0.546897 -0.791545,-0.163099 -1.739217,-0.249499 -2.842813,-0.259099 -2.8992,0.0191 -5.301625,0.874509 -7.207478,2.566333 -1.905852,1.691924 -2.893844,4.106071 -2.964075,7.242543 0.0031,2.662231 0.822366,4.853255 2.4576,6.572968 1.635334,1.719815 4.067974,2.609583 7.29792,2.669407 1.134821,-0.01102 2.117153,-0.100043 2.946897,-0.266982 0.829743,-0.16704 1.437574,-0.346105 1.823595,-0.537397 z" /></svg>