<?xml version="1.0" encoding="UTF-8" standalone="no"?>
<svg
   xmlns:dc="http://purl.org/dc/elements/1.1/"
   xmlns:cc="http://creativecommons.org/ns#"
   xmlns:rdf="http://www.w3.org/1999/02/22-rdf-syntax-ns#"
   xmlns:svg="http://www.w3.org/2000/svg"
   xmlns="http://www.w3.org/2000/svg"
   id="svg4"
   xml:space="preserve"
   enable-background="new 0 0 76.00 76.00"
   viewBox="0 0 48 48"
   height="48"
   width="48"
   version="1.1"><metadata
     id="metadata10"><rdf:RDF><cc:Work
         rdf:about=""><dc:format>image/svg+xml</dc:format><dc:type
           rdf:resource="http://purl.org/dc/dcmitype/StillImage" /><dc:title></dc:title></cc:Work></rdf:RDF></metadata><defs
     id="defs8" /><path
     style="fill:#f0ffff;fill-opacity:1;stroke-width:0.25263157;stroke-linejoin:round"
     id="path2"
     d="M 0,32.842106 H 10.105263 V 42.947368 H 0 Z m 15.157895,0 H 48 V 42.947368 H 15.157895 Z m 0,-3.789475 V 18.947368 l 5.052631,1.27e-4 v 1.263158 H 16.421053 V 27.7896 h 11.368421 v 1.263157 z M 48,18.947368 v 10.105263 l -12.631579,1.26e-4 V 27.7896 H 46.736842 V 20.210653 H 42.947368 V 18.947495 Z M 21.473684,24.31579 21.473811,17.368421 31.578947,7.2631575 41.684211,17.368421 V 24.31579 L 34.105263,16.736842 V 29.052631 H 29.052632 V 16.736842 Z M 15.157895,5.0526315 H 48 V 15.157895 h -6 l -1.263158,-1.263158 h 6 V 6.3157895 H 16.421053 v 7.5789475 h 6 l -1.263158,1.263158 h -6 z M 0,5.0526315 H 10.105263 V 15.157895 H 0 Z m 1.263158,1.263158 V 13.894737 H 8.842105 V 6.3157895 Z M 0,18.947368 H 10.105263 V 29.052631 H 0 Z m 8.842105,1.263158 H 1.263158 v 7.578948 h 7.578947 z" /></svg>