<?xml version="1.0" encoding="UTF-8" standalone="no"?>
<svg
   xmlns:dc="http://purl.org/dc/elements/1.1/"
   xmlns:cc="http://creativecommons.org/ns#"
   xmlns:rdf="http://www.w3.org/1999/02/22-rdf-syntax-ns#"
   xmlns:svg="http://www.w3.org/2000/svg"
   xmlns="http://www.w3.org/2000/svg"
   id="svg4"
   xml:space="preserve"
   enable-background="new 0 0 76.00 76.00"
   viewBox="0 0 48 48"
   height="48"
   width="48"
   version="1.1"><metadata
     id="metadata10"><rdf:RDF><cc:Work
         rdf:about=""><dc:format>image/svg+xml</dc:format><dc:type
           rdf:resource="http://purl.org/dc/dcmitype/StillImage" /><dc:title></dc:title></cc:Work></rdf:RDF></metadata><defs
     id="defs8" /><path
     style="fill:#f0ffff;fill-opacity:1;stroke-width:0.25263226;stroke-linejoin:round"
     id="path2"
     d="M 0,15.157871 H 10.10529 V 5.0525817 H 0 Z m 15.157935,0 H 48 V 5.0525817 H 15.157935 Z m 0,3.789484 v 10.10529 h 5.052645 v -1.263288 l -3.789484,1.26e-4 V 20.210516 L 27.789547,20.21039 V 18.947355 Z M 48,29.052645 v -10.10529 l -12.631612,-1.26e-4 v 1.263161 l 11.368451,1.26e-4 v 7.578967 l -3.789484,-1.26e-4 v 1.263161 z M 21.473741,23.684209 v 6.947387 l 10.105289,10.10529 10.10529,-10.10529 v -6.947387 l -7.578967,7.578968 V 18.947355 H 29.052708 V 31.263177 Z M 15.157935,42.947418 H 48 v -10.10529 h -6.000016 l -1.263161,1.263161 h 6.000142 v 7.578968 H 16.421096 v -7.578968 h 6.000016 L 21.15795,32.842128 H 15.157935 Z M 0,42.947418 H 10.10529 V 32.842128 H 0 Z M 1.2631612,41.684257 V 34.105289 H 8.842129 v 7.578968 z M 0,29.052645 H 10.10529 V 18.947355 H 0 Z M 8.842129,27.789483 H 1.2631612 V 20.210516 H 8.842129 Z" /></svg>