<?xml version="1.0" encoding="UTF-8" standalone="no"?>
<svg
   xmlns:dc="http://purl.org/dc/elements/1.1/"
   xmlns:cc="http://creativecommons.org/ns#"
   xmlns:rdf="http://www.w3.org/1999/02/22-rdf-syntax-ns#"
   xmlns:svg="http://www.w3.org/2000/svg"
   xmlns="http://www.w3.org/2000/svg"
   version="1.1"
   id="svg2"
   viewBox="0 0 48 48">
  <metadata
     id="metadata97">
    <rdf:RDF>
      <cc:Work
         rdf:about="">
        <dc:format>image/svg+xml</dc:format>
        <dc:type
           rdf:resource="http://purl.org/dc/dcmitype/StillImage" />
        <dc:title></dc:title>
      </cc:Work>
    </rdf:RDF>
  </metadata>
  <defs
     id="defs4">
    <linearGradient
       gradientUnits="userSpaceOnUse"
       y2="47"
       x2="0"
       y1="1"
       id="linearGradient3046">
      <stop
         id="stop7"
         style="stop-color:#e26878;stop-opacity:1" />
      <stop
         id="stop9"
         style="stop-color:#df5769;stop-opacity:1"
         offset="1" />
    </linearGradient>
  </defs>
  <g
     id="g11">
    <path
       id="path13"
       style="opacity:0.05"
       d="m 36.31 5 c 5.859 4.062 9.688 10.831 9.688 18.5 c 0 12.426 -10.07 22.5 -22.5 22.5 c -7.669 0 -14.438 -3.828 -18.5 -9.688 c 1.037 1.822 2.306 3.499 3.781 4.969 c 4.085 3.712 9.514 5.969 15.469 5.969 c 12.703 0 23 -10.298 23 -23 c 0 -5.954 -2.256 -11.384 -5.969 -15.469 c -1.469 -1.475 -3.147 -2.744 -4.969 -3.781 z m 4.969 3.781 c 3.854 4.113 6.219 9.637 6.219 15.719 c 0 12.703 -10.297 23 -23 23 c -6.081 0 -11.606 -2.364 -15.719 -6.219 c 4.16 4.144 9.883 6.719 16.219 6.719 c 12.703 0 23 -10.298 23 -23 c 0 -6.335 -2.575 -12.06 -6.719 -16.219 z" />
    <path
       id="path15"
       style="opacity:0.1"
       d="m 41.28 8.781 c 3.712 4.085 5.969 9.514 5.969 15.469 c 0 12.703 -10.297 23 -23 23 c -5.954 0 -11.384 -2.256 -15.469 -5.969 c 4.113 3.854 9.637 6.219 15.719 6.219 c 12.703 0 23 -10.298 23 -23 c 0 -6.081 -2.364 -11.606 -6.219 -15.719 z" />
    <path
       id="path17"
       style="opacity:0.2"
       d="m 31.25 2.375 c 8.615 3.154 14.75 11.417 14.75 21.13 c 0 12.426 -10.07 22.5 -22.5 22.5 c -9.708 0 -17.971 -6.135 -21.12 -14.75 a 23 23 0 0 0 44.875 -7 a 23 23 0 0 0 -16 -21.875 z" />
  </g>
  <g
     id="g19"
     style="fill:#fea">
    <path
       id="path21"
       style="fill:url(#linearGradient3046);fill-opacity:1"
       d="m 24 1 c 12.703 0 23 10.297 23 23 c 0 12.703 -10.297 23 -23 23 -12.703 0 -23 -10.297 -23 -23 0 -12.703 10.297 -23 23 -23 z" />
  </g>
  <g
     id="g23">
    <path
       id="path25"
       style="opacity:0.1"
       d="m 40.03 7.531 c 3.712 4.084 5.969 9.514 5.969 15.469 0 12.703 -10.297 23 -23 23 c -5.954 0 -11.384 -2.256 -15.469 -5.969 4.178 4.291 10.01 6.969 16.469 6.969 c 12.703 0 23 -10.298 23 -23 0 -6.462 -2.677 -12.291 -6.969 -16.469 z" />
  </g>
  <g
     id="g27"
     transform="matrix(1.0833333,0,0,0.95833333,-2.083334,-0.45833296)">
    <g
       id="g29">
      <g
         id="g31"
         transform="translate(1,1)">
        <g
           id="g33"
           style="opacity:0.1">
          <!-- color: #474747 -->
          <g
             id="g35">
            <path
               id="path37"
               style="fill:#000;fill-opacity:1;stroke:none;fill-rule:evenodd"
               d="m 12 14.09 0 21.913 l 10.154 0 0.923 1.043 1.846 0 l 0.923 -1.043 10.154 0 l 0 -21.913 -10.154 0 -0.923 1.043 -1.846 0 -0.923 -1.043" />
          </g>
        </g>
      </g>
    </g>
  </g>
  <g
     id="g39">
    <g
       id="g41">
      <g
         id="g43">
        <g
           id="g45">
          <!-- color: #474747 -->
          <g
             id="g47">
            <g
               id="g49"
               transform="translate(1,-2)">
              <path
                 id="path51"
                 style="fill:#3e263b;fill-opacity:1;stroke:none;fill-rule:evenodd"
                 d="m 22 36 -1 -1 -11 0 0 1 11 0 1 1 2 0 1 -1 c 4 0 11 0 11 0 l 0 -1 -11 0 -1 1" />
              <path
                 id="path53"
                 style="fill:#969795;fill-opacity:1;stroke:none;fill-rule:evenodd"
                 d="m 10 31 0 1 11 0 1 1 -12 0 0 1 11 0 1 1 2 0 1 -1 11 0 0 -1 -12 0 1 -1 11 0 0 -1 z" />
              <path
                 id="path55"
                 style="fill:#f2f2f2;fill-opacity:1;stroke:none;fill-rule:evenodd"
                 d="m 36 15 -11 0 -1 1 -2 0 -1 -1 -11 0 0 16 c 4 0 7 0 11 0 l 1 1 2 0 1 -1 c 4 0 7 0 11 0" />
              <path
                 id="path57"
                 style="fill:#aeb2b7;fill-opacity:0.471;stroke:none;fill-rule:evenodd"
                 d="m 21 15 0 16 1 1 2 0 1 -1 c 0 -5.667 0 -10.333 0 -16 l -1 1 -2 0" />
              <path
                 id="path59"
                 style="fill:#ddd8d8;fill-opacity:1;stroke:none;fill-rule:evenodd"
                 d="m 10 34 0 1 11 0 1 1 2 0 1 -1 11 0 0 -1 -11 0 -1 1 -2 0 -1 -1 -11 0 z" />
              <path
                 id="path61"
                 style="fill:#9bb5b9;fill-opacity:0.688;stroke:none;fill-rule:evenodd"
                 d="m 22 16 0 16 2 0 0 -16" />
              <path
                 id="path63"
                 style="fill:#ddd8d8;fill-opacity:1;stroke:none;fill-rule:evenodd"
                 d="m 10 32 0 1 11 0 1 1 2 0 1 -1 11 0 0 -1 -11 0 -1 1 -2 0 -1 -1 -11 0 z" />
            </g>
          </g>
        </g>
      </g>
    </g>
    <rect
       id="rect65"
       style="fill:#ccc;fill-opacity:1;stroke:none;fill-rule:nonzero"
       y="16"
       x="27"
       height="1"
       width="9" />
    <rect
       id="rect67"
       style="fill:#ccc;fill-opacity:1;stroke:none;fill-rule:nonzero"
       width="9"
       height="1"
       x="27"
       y="22" />
    <rect
       id="rect69"
       style="fill:#c54444;fill-opacity:1;stroke:none;fill-rule:nonzero"
       width="6"
       height="6"
       x="12"
       y="13" />
    <g
       id="g71"
       style="fill:#f2f2f2;fill-opacity:1;stroke:none"
       transform="scale(0.97672596,1.0238286)">
      <path
         id="path73"
         d="m 16.12 16.869 -1.505 0 -0.276 0.712 -1.024 0 1.447 -3.907 1.201 0 1.447 3.907 -1.024 0 m -1.495 -1.534 0.942 0 -0.471 -1.396" />
    </g>
    <rect
       id="rect75"
       style="fill:#ccc;fill-opacity:1;stroke:none;fill-rule:nonzero"
       width="9"
       height="1"
       x="12"
       y="20" />
    <rect
       id="rect77"
       style="fill:#ccc;fill-opacity:1;stroke:none;fill-rule:nonzero"
       y="22"
       x="12"
       height="1"
       width="9" />
    <rect
       id="rect79"
       style="fill:#ccc;fill-opacity:1;stroke:none;fill-rule:nonzero"
       width="9"
       height="1"
       x="12"
       y="24" />
    <rect
       id="rect81"
       style="fill:#ccc;fill-opacity:1;stroke:none;fill-rule:nonzero"
       y="26"
       x="12"
       height="1"
       width="9" />
    <rect
       id="rect83"
       style="fill:#ccc;fill-opacity:1;stroke:none;fill-rule:nonzero"
       width="9"
       height="1"
       x="27"
       y="26" />
    <rect
       id="rect85"
       style="fill:#ccc;fill-opacity:1;stroke:none;fill-rule:nonzero"
       y="24"
       x="27"
       height="1"
       width="9" />
    <rect
       id="rect87"
       style="fill:#ccc;fill-opacity:1;stroke:none;fill-rule:nonzero"
       y="20"
       x="27"
       height="1"
       width="9" />
    <rect
       id="rect89"
       style="fill:#ccc;fill-opacity:1;stroke:none;fill-rule:nonzero"
       width="9"
       height="1"
       x="27"
       y="18" />
    <path
       id="path91"
       style="fill:#000;fill-opacity:0.118;stroke:none;fill-rule:evenodd"
       d="m 29 13 0 11 1 -1 1 1 0 -11" />
    <path
       id="path93"
       style="fill:#c54444;fill-opacity:1;stroke:none;fill-rule:evenodd"
       d="m 28 13 0 10 1 -1 1 1 0 -10" />
  </g>
</svg>
